<svg width="580" height="580" viewBox="0 0 580 580" fill="none" xmlns="http://www.w3.org/2000/svg">
<circle cx="290" cy="290" r="290" fill="#252121"/>
<path d="M306.151 391.966V305.137L443 226.963L409.698 207.921L306.151 267.052V179.859C306.151 174.027 302.966 168.47 297.87 165.554L173.305 93.9403C169.587 91.8942 165.39 90.8826 161.149 91.0108C156.909 91.139 152.78 92.4023 149.192 94.6692C145.749 96.8168 142.913 99.8118 140.953 103.369C138.994 106.925 137.978 110.925 138 114.987V359.986C138 368.277 142.186 375.931 149.192 380.304C152.776 382.58 156.906 383.849 161.149 383.977C165.391 384.105 169.59 383.088 173.305 381.033L273.121 323.997V401.624C273.121 407.546 276.397 413.104 281.492 416.02L409.516 489L442.818 469.867L306.151 391.966ZM273.121 189.516V285.912L171.03 344.224V130.841L273.121 189.516Z" fill="white"/>
</svg>
