<svg width="580" height="580" viewBox="0 0 580 580" fill="none" xmlns="http://www.w3.org/2000/svg">
<circle cx="290" cy="290" r="290" fill="#252121"/>
<path d="M449.312 162H131.688C125.67 162 119.9 164.389 115.645 168.642C111.39 172.894 109 178.662 109 184.676V396.324C109 402.338 111.39 408.106 115.645 412.358C119.9 416.611 125.67 419 131.688 419H449.312C455.33 419 461.1 416.611 465.355 412.358C469.61 408.106 472 402.338 472 396.324V184.676C472 178.662 469.61 172.894 465.355 168.642C461.1 164.389 455.33 162 449.312 162ZM444.473 177.118L290.5 296.094L136.528 177.118H444.473ZM124.125 393.224V186.642L240.663 276.667L124.125 393.224ZM134.788 403.882L252.688 286.04L285.811 311.665C287.134 312.682 288.756 313.234 290.424 313.234C292.093 313.234 293.715 312.682 295.038 311.665L328.312 286.04L446.212 403.882H134.788ZM456.875 393.224L340.337 276.667L456.875 186.642V393.224Z" fill="white"/>
</svg>
